<svg width="147" height="72" viewBox="0 0 147 72" fill="none" xmlns="http://www.w3.org/2000/svg">
<path d="M84.3821 8.46071H81.4767V6.74857H89.3889V8.46071H86.4834V15.8281H84.3821V8.46071ZM94.6182 8.74607C95.483 8.74607 96.1791 9.00549 96.7065 9.52432C97.2427 10.0431 97.5107 10.8127 97.5107 11.8331V15.8281H95.4873V12.1444C95.4873 11.591 95.3662 11.1803 95.1241 10.9122C94.882 10.6355 94.5318 10.4971 94.0735 10.4971C93.5633 10.4971 93.1569 10.6571 92.8542 10.977C92.5516 11.2883 92.4002 11.7553 92.4002 12.3779V15.8281H90.3768V6.20379H92.4002V9.5762C92.6683 9.30814 92.9926 9.10493 93.373 8.96657C93.7535 8.81957 94.1686 8.74607 94.6182 8.74607ZM106.256 12.3649C106.256 12.3909 106.244 12.5725 106.218 12.9097H100.938C101.034 13.3421 101.258 13.6836 101.613 13.9344C101.967 14.1852 102.408 14.3105 102.936 14.3105C103.299 14.3105 103.619 14.2587 103.896 14.1549C104.181 14.0425 104.445 13.8695 104.687 13.6361L105.764 14.8034C105.106 15.5557 104.147 15.9319 102.884 15.9319C102.097 15.9319 101.401 15.7806 100.796 15.4779C100.19 15.1666 99.7235 14.7386 99.3949 14.1938C99.0663 13.649 98.902 13.0308 98.902 12.339C98.902 11.6559 99.062 11.0419 99.382 10.4971C99.7106 9.94371 100.156 9.51567 100.718 9.21302C101.289 8.90172 101.924 8.74607 102.625 8.74607C103.308 8.74607 103.926 8.89307 104.479 9.18708C105.033 9.48108 105.465 9.90479 105.777 10.4582C106.097 11.003 106.256 11.6386 106.256 12.3649ZM102.638 10.2766C102.179 10.2766 101.795 10.4063 101.483 10.6657C101.172 10.9252 100.982 11.2797 100.913 11.7294H104.35C104.281 11.2883 104.09 10.9381 103.779 10.6787C103.468 10.4107 103.087 10.2766 102.638 10.2766ZM82.5014 22.7486H86.6261C87.6119 22.7486 88.4809 22.9388 89.2332 23.3193C89.9942 23.6911 90.5822 24.2186 90.9973 24.9017C91.421 25.5848 91.6328 26.3804 91.6328 27.2883C91.6328 28.1963 91.421 28.9918 90.9973 29.675C90.5822 30.3581 89.9942 30.8899 89.2332 31.2704C88.4809 31.6422 87.6119 31.8281 86.6261 31.8281H82.5014V22.7486ZM86.5223 30.103C87.4303 30.103 88.1523 29.8522 88.6885 29.3507C89.2332 28.8405 89.5056 28.1531 89.5056 27.2883C89.5056 26.4236 89.2332 25.7405 88.6885 25.239C88.1523 24.7288 87.4303 24.4737 86.5223 24.4737H84.6027V30.103H86.5223ZM99.9104 28.3649C99.9104 28.3909 99.8975 28.5725 99.8715 28.9097H94.5924C94.6875 29.3421 94.9123 29.6836 95.2669 29.9344C95.6214 30.1852 96.0624 30.3105 96.5899 30.3105C96.9531 30.3105 97.273 30.2587 97.5497 30.1549C97.8351 30.0425 98.0988 29.8695 98.341 29.6361L99.4175 30.8034C98.7603 31.5557 97.8005 31.9319 96.538 31.9319C95.7511 31.9319 95.055 31.7806 94.4497 31.4779C93.8444 31.1666 93.3775 30.7386 93.0489 30.1938C92.7203 29.649 92.556 29.0308 92.556 28.339C92.556 27.6559 92.716 27.0419 93.0359 26.4971C93.3645 25.9437 93.8098 25.5157 94.3719 25.213C94.9426 24.9017 95.5782 24.7461 96.2786 24.7461C96.9617 24.7461 97.58 24.8931 98.1334 25.1871C98.6868 25.4811 99.1192 25.9048 99.4305 26.4582C99.7504 27.003 99.9104 27.6386 99.9104 28.3649ZM96.2916 26.2766C95.8333 26.2766 95.4485 26.4063 95.1372 26.6657C94.8259 26.9252 94.6356 27.2797 94.5665 27.7294H98.0037C97.9345 27.2883 97.7443 26.9381 97.433 26.6787C97.1217 26.4107 96.7412 26.2766 96.2916 26.2766ZM105.499 24.7461C106.364 24.7461 107.06 25.0055 107.587 25.5243C108.123 26.0431 108.391 26.8127 108.391 27.8331V31.8281H106.368V28.1444C106.368 27.591 106.247 27.1803 106.005 26.9122C105.763 26.6355 105.413 26.4971 104.954 26.4971C104.444 26.4971 104.038 26.6571 103.735 26.977C103.432 27.2883 103.281 27.7553 103.281 28.3779V31.8281H101.258V24.8498H103.19V25.667C103.458 25.373 103.791 25.1482 104.189 24.9925C104.587 24.8282 105.023 24.7461 105.499 24.7461ZM110.226 24.8498H112.249V31.8281H110.226V24.8498ZM111.237 23.877C110.866 23.877 110.563 23.7689 110.329 23.5528C110.096 23.3366 109.979 23.0685 109.979 22.7486C109.979 22.4286 110.096 22.1606 110.329 21.9444C110.563 21.7282 110.866 21.6201 111.237 21.6201C111.609 21.6201 111.912 21.7239 112.145 21.9314C112.379 22.1389 112.496 22.3984 112.496 22.7097C112.496 23.0469 112.379 23.3279 112.145 23.5528C111.912 23.7689 111.609 23.877 111.237 23.877ZM119.873 30.2716V31.8281H113.647V30.6089L117.201 26.4063H113.738V24.8498H119.756V26.0691L116.202 30.2716H119.873ZM127.917 28.3649C127.917 28.3909 127.904 28.5725 127.878 28.9097H122.599C122.694 29.3421 122.919 29.6836 123.273 29.9344C123.628 30.1852 124.069 30.3105 124.596 30.3105C124.959 30.3105 125.279 30.2587 125.556 30.1549C125.841 30.0425 126.105 29.8695 126.347 29.6361L127.424 30.8034C126.767 31.5557 125.807 31.9319 124.544 31.9319C123.757 31.9319 123.061 31.7806 122.456 31.4779C121.851 31.1666 121.384 30.7386 121.055 30.1938C120.727 29.649 120.562 29.0308 120.562 28.339C120.562 27.6559 120.722 27.0419 121.042 26.4971C121.371 25.9437 121.816 25.5157 122.378 25.213C122.949 24.9017 123.584 24.7461 124.285 24.7461C124.968 24.7461 125.586 24.8931 126.14 25.1871C126.693 25.4811 127.125 25.9048 127.437 26.4582C127.757 27.003 127.917 27.6386 127.917 28.3649ZM124.298 26.2766C123.84 26.2766 123.455 26.4063 123.143 26.6657C122.832 26.9252 122.642 27.2797 122.573 27.7294H126.01C125.941 27.2883 125.751 26.9381 125.439 26.6787C125.128 26.4107 124.748 26.2766 124.298 26.2766ZM133.505 24.7461C134.37 24.7461 135.066 25.0055 135.594 25.5243C136.13 26.0431 136.398 26.8127 136.398 27.8331V31.8281H134.374V28.1444C134.374 27.591 134.253 27.1803 134.011 26.9122C133.769 26.6355 133.419 26.4971 132.961 26.4971C132.45 26.4971 132.044 26.6571 131.741 26.977C131.439 27.2883 131.287 27.7553 131.287 28.3779V31.8281H129.264V24.8498H131.196V25.667C131.465 25.373 131.797 25.1482 132.195 24.9925C132.593 24.8282 133.03 24.7461 133.505 24.7461ZM82.5014 38.7486H86.6261C87.6119 38.7486 88.4809 38.9388 89.2332 39.3193C89.9942 39.6911 90.5822 40.2186 90.9973 40.9017C91.421 41.5848 91.6328 42.3804 91.6328 43.2883C91.6328 44.1963 91.421 44.9918 90.9973 45.675C90.5822 46.3581 89.9942 46.8899 89.2332 47.2704C88.4809 47.6422 87.6119 47.8281 86.6261 47.8281H82.5014V38.7486ZM86.5223 46.103C87.4303 46.103 88.1523 45.8522 88.6885 45.3507C89.2332 44.8405 89.5056 44.1531 89.5056 43.2883C89.5056 42.4236 89.2332 41.7405 88.6885 41.239C88.1523 40.7288 87.4303 40.4737 86.5223 40.4737H84.6027V46.103H86.5223ZM99.9104 44.3649C99.9104 44.3909 99.8975 44.5725 99.8715 44.9097H94.5924C94.6875 45.3421 94.9123 45.6836 95.2669 45.9344C95.6214 46.1852 96.0624 46.3105 96.5899 46.3105C96.9531 46.3105 97.273 46.2587 97.5497 46.1549C97.8351 46.0425 98.0988 45.8695 98.341 45.6361L99.4175 46.8034C98.7603 47.5557 97.8005 47.9319 96.538 47.9319C95.7511 47.9319 95.055 47.7806 94.4497 47.4779C93.8444 47.1666 93.3775 46.7386 93.0489 46.1938C92.7203 45.649 92.556 45.0308 92.556 44.339C92.556 43.6559 92.716 43.0419 93.0359 42.4971C93.3645 41.9437 93.8098 41.5157 94.3719 41.213C94.9426 40.9017 95.5782 40.7461 96.2786 40.7461C96.9617 40.7461 97.58 40.8931 98.1334 41.1871C98.6868 41.4811 99.1192 41.9048 99.4305 42.4582C99.7504 43.003 99.9104 43.6386 99.9104 44.3649ZM96.2916 42.2766C95.8333 42.2766 95.4485 42.4063 95.1372 42.6657C94.8259 42.9252 94.6356 43.2797 94.5665 43.7294H98.0037C97.9345 43.2883 97.7443 42.9381 97.433 42.6787C97.1217 42.4107 96.7412 42.2766 96.2916 42.2766ZM103.605 47.9319C103.026 47.9319 102.46 47.8627 101.906 47.7244C101.353 47.5774 100.912 47.3958 100.583 47.1796L101.258 45.7269C101.569 45.9257 101.945 46.09 102.386 46.2197C102.827 46.3408 103.259 46.4013 103.683 46.4013C104.539 46.4013 104.967 46.1895 104.967 45.7658C104.967 45.5669 104.85 45.4242 104.617 45.3377C104.384 45.2513 104.025 45.1778 103.54 45.1172C102.97 45.0308 102.498 44.9313 102.127 44.8189C101.755 44.7065 101.431 44.5076 101.154 44.2222C100.886 43.9369 100.752 43.5305 100.752 43.003C100.752 42.562 100.877 42.1729 101.128 41.8356C101.387 41.4897 101.759 41.2217 102.243 41.0314C102.736 40.8412 103.316 40.7461 103.981 40.7461C104.474 40.7461 104.963 40.8023 105.447 40.9147C105.94 41.0185 106.346 41.1655 106.666 41.3557L105.992 42.7955C105.378 42.4496 104.708 42.2766 103.981 42.2766C103.549 42.2766 103.225 42.3372 103.009 42.4582C102.792 42.5793 102.684 42.7349 102.684 42.9252C102.684 43.1413 102.801 43.2927 103.035 43.3791C103.268 43.4656 103.64 43.5478 104.15 43.6256C104.721 43.7207 105.188 43.8245 105.551 43.9369C105.914 44.0407 106.23 44.2352 106.498 44.5206C106.766 44.8059 106.9 45.2037 106.9 45.7139C106.9 46.1462 106.77 46.531 106.511 46.8683C106.251 47.2055 105.871 47.4693 105.369 47.6595C104.876 47.8411 104.288 47.9319 103.605 47.9319ZM108.148 40.8498H110.172V47.8281H108.148V40.8498ZM109.16 39.877C108.788 39.877 108.486 39.7689 108.252 39.5528C108.019 39.3366 107.902 39.0685 107.902 38.7486C107.902 38.4286 108.019 38.1606 108.252 37.9444C108.486 37.7282 108.788 37.6201 109.16 37.6201C109.532 37.6201 109.834 37.7239 110.068 37.9314C110.301 38.1389 110.418 38.3984 110.418 38.7097C110.418 39.0469 110.301 39.3279 110.068 39.5528C109.834 39.7689 109.532 39.877 109.16 39.877ZM119.248 40.8498V46.6608C119.248 47.9405 118.916 48.8917 118.25 49.5143C117.584 50.1369 116.611 50.4482 115.331 50.4482C114.657 50.4482 114.017 50.3661 113.412 50.2018C112.806 50.0375 112.305 49.7997 111.907 49.4884L112.711 48.0357C113.005 48.2778 113.377 48.468 113.827 48.6064C114.276 48.7534 114.726 48.8269 115.176 48.8269C115.876 48.8269 116.391 48.6669 116.719 48.347C117.056 48.0357 117.225 47.5601 117.225 46.9202V46.6218C116.698 47.2012 115.963 47.4909 115.02 47.4909C114.38 47.4909 113.792 47.3525 113.256 47.0758C112.728 46.7905 112.309 46.3927 111.998 45.8825C111.686 45.3723 111.531 44.7843 111.531 44.1185C111.531 43.4526 111.686 42.8646 111.998 42.3544C112.309 41.8443 112.728 41.4508 113.256 41.1741C113.792 40.8887 114.38 40.7461 115.02 40.7461C116.032 40.7461 116.801 41.079 117.329 41.7448V40.8498H119.248ZM115.422 45.8306C115.958 45.8306 116.395 45.675 116.732 45.3637C117.078 45.0437 117.251 44.6287 117.251 44.1185C117.251 43.6083 117.078 43.1975 116.732 42.8863C116.395 42.5663 115.958 42.4063 115.422 42.4063C114.886 42.4063 114.445 42.5663 114.099 42.8863C113.753 43.1975 113.58 43.6083 113.58 44.1185C113.58 44.6287 113.753 45.0437 114.099 45.3637C114.445 45.675 114.886 45.8306 115.422 45.8306ZM125.373 40.7461C126.238 40.7461 126.934 41.0055 127.462 41.5243C127.998 42.0431 128.266 42.8127 128.266 43.8331V47.8281H126.242V44.1444C126.242 43.591 126.121 43.1803 125.879 42.9122C125.637 42.6355 125.287 42.4971 124.828 42.4971C124.318 42.4971 123.912 42.6571 123.609 42.977C123.307 43.2883 123.155 43.7553 123.155 44.3779V47.8281H121.132V40.8498H123.064V41.667C123.332 41.373 123.665 41.1482 124.063 40.9925C124.461 40.8282 124.898 40.7461 125.373 40.7461ZM137.011 44.3649C137.011 44.3909 136.998 44.5725 136.973 44.9097H131.693C131.789 45.3421 132.013 45.6836 132.368 45.9344C132.722 46.1852 133.163 46.3105 133.691 46.3105C134.054 46.3105 134.374 46.2587 134.651 46.1549C134.936 46.0425 135.2 45.8695 135.442 45.6361L136.519 46.8034C135.861 47.5557 134.902 47.9319 133.639 47.9319C132.852 47.9319 132.156 47.7806 131.551 47.4779C130.945 47.1666 130.479 46.7386 130.15 46.1938C129.821 45.649 129.657 45.0308 129.657 44.339C129.657 43.6559 129.817 43.0419 130.137 42.4971C130.466 41.9437 130.911 41.5157 131.473 41.213C132.044 40.9017 132.679 40.7461 133.38 40.7461C134.063 40.7461 134.681 40.8931 135.234 41.1871C135.788 41.4811 136.22 41.9048 136.532 42.4582C136.851 43.003 137.011 43.6386 137.011 44.3649ZM133.393 42.2766C132.934 42.2766 132.55 42.4063 132.238 42.6657C131.927 42.9252 131.737 43.2797 131.667 43.7294H135.105C135.036 43.2883 134.845 42.9381 134.534 42.6787C134.223 42.4107 133.842 42.2766 133.393 42.2766ZM140.291 41.7708C140.533 41.4335 140.858 41.1784 141.264 41.0055C141.679 40.8325 142.155 40.7461 142.691 40.7461V42.6139C142.466 42.5966 142.315 42.5879 142.237 42.5879C141.658 42.5879 141.204 42.7522 140.875 43.0808C140.546 43.4008 140.382 43.885 140.382 44.5335V47.8281H138.359V40.8498H140.291V41.7708ZM86.4315 54.7486C87.2357 54.7486 87.9318 54.8826 88.5198 55.1507C89.1165 55.4187 89.5748 55.7992 89.8947 56.2921C90.2147 56.785 90.3747 57.3687 90.3747 58.0431C90.3747 58.709 90.2147 59.2927 89.8947 59.7942C89.5748 60.2871 89.1165 60.6676 88.5198 60.9356C87.9318 61.1951 87.2357 61.3248 86.4315 61.3248H84.6027V63.8281H82.5014V54.7486H86.4315ZM86.3148 59.6126C86.946 59.6126 87.426 59.4786 87.7546 59.2105C88.0831 58.9338 88.2474 58.5447 88.2474 58.0431C88.2474 57.533 88.0831 57.1438 87.7546 56.8758C87.426 56.5991 86.946 56.4607 86.3148 56.4607H84.6027V59.6126H86.3148ZM93.6648 57.7708C93.9069 57.4335 94.2312 57.1784 94.6376 57.0055C95.0527 56.8325 95.5283 56.7461 96.0644 56.7461V58.6139C95.8395 58.5966 95.6882 58.5879 95.6104 58.5879C95.031 58.5879 94.5771 58.7522 94.2485 59.0808C93.9199 59.4008 93.7556 59.885 93.7556 60.5335V63.8281H91.7321V56.8498H93.6648V57.7708ZM100.525 63.9319C99.7897 63.9319 99.1282 63.7806 98.5402 63.4779C97.9608 63.1666 97.5068 62.7386 97.1782 62.1938C96.8497 61.649 96.6854 61.0308 96.6854 60.339C96.6854 59.6472 96.8497 59.0289 97.1782 58.4842C97.5068 57.9394 97.9608 57.5157 98.5402 57.213C99.1282 56.9017 99.7897 56.7461 100.525 56.7461C101.26 56.7461 101.917 56.9017 102.496 57.213C103.076 57.5157 103.53 57.9394 103.858 58.4842C104.187 59.0289 104.351 59.6472 104.351 60.339C104.351 61.0308 104.187 61.649 103.858 62.1938C103.53 62.7386 103.076 63.1666 102.496 63.4779C101.917 63.7806 101.26 63.9319 100.525 63.9319ZM100.525 62.2716C101.044 62.2716 101.467 62.0987 101.796 61.7528C102.133 61.3983 102.302 60.927 102.302 60.339C102.302 59.751 102.133 59.284 101.796 58.9381C101.467 58.5836 101.044 58.4063 100.525 58.4063C100.006 58.4063 99.5778 58.5836 99.2406 58.9381C98.9034 59.284 98.7347 59.751 98.7347 60.339C98.7347 60.927 98.9034 61.3983 99.2406 61.7528C99.5778 62.0987 100.006 62.2716 100.525 62.2716ZM105.185 66.4482C104.476 66.4482 103.935 66.3185 103.563 66.0591L104.108 64.5934C104.342 64.7577 104.627 64.8398 104.964 64.8398C105.224 64.8398 105.427 64.7534 105.574 64.5804C105.721 64.4161 105.794 64.1654 105.794 63.8281V56.8498H107.818V63.8152C107.818 64.628 107.584 65.2679 107.117 65.7348C106.659 66.2104 106.015 66.4482 105.185 66.4482ZM106.806 55.877C106.434 55.877 106.132 55.7689 105.898 55.5528C105.665 55.3366 105.548 55.0685 105.548 54.7486C105.548 54.4286 105.665 54.1606 105.898 53.9444C106.132 53.7282 106.434 53.6201 106.806 53.6201C107.178 53.6201 107.481 53.7239 107.714 53.9314C107.948 54.1389 108.064 54.3984 108.064 54.7097C108.064 55.0469 107.948 55.3279 107.714 55.5528C107.481 55.7689 107.178 55.877 106.806 55.877ZM116.517 60.3649C116.517 60.3909 116.504 60.5725 116.478 60.9097H111.199C111.294 61.3421 111.519 61.6836 111.873 61.9344C112.228 62.1852 112.669 62.3105 113.196 62.3105C113.559 62.3105 113.879 62.2587 114.156 62.1549C114.441 62.0425 114.705 61.8695 114.947 61.6361L116.024 62.8034C115.367 63.5557 114.407 63.9319 113.144 63.9319C112.357 63.9319 111.661 63.7806 111.056 63.4779C110.451 63.1666 109.984 62.7386 109.655 62.1938C109.326 61.649 109.162 61.0308 109.162 60.339C109.162 59.6559 109.322 59.0419 109.642 58.4971C109.971 57.9437 110.416 57.5157 110.978 57.213C111.549 56.9017 112.184 56.7461 112.885 56.7461C113.568 56.7461 114.186 56.8931 114.74 57.1871C115.293 57.4811 115.725 57.9048 116.037 58.4582C116.357 59.003 116.517 59.6386 116.517 60.3649ZM112.898 58.2766C112.439 58.2766 112.055 58.4063 111.743 58.6657C111.432 58.9252 111.242 59.2797 111.173 59.7294H114.61C114.541 59.2883 114.35 58.9381 114.039 58.6787C113.728 58.4107 113.347 58.2766 112.898 58.2766ZM121.236 63.9319C120.492 63.9319 119.822 63.7806 119.226 63.4779C118.638 63.1666 118.175 62.7386 117.838 62.1938C117.509 61.649 117.345 61.0308 117.345 60.339C117.345 59.6472 117.509 59.0289 117.838 58.4842C118.175 57.9394 118.638 57.5157 119.226 57.213C119.822 56.9017 120.492 56.7461 121.236 56.7461C121.971 56.7461 122.611 56.9017 123.156 57.213C123.709 57.5157 124.111 57.9524 124.362 58.5231L122.793 59.3662C122.429 58.7263 121.906 58.4063 121.223 58.4063C120.696 58.4063 120.259 58.5793 119.913 58.9252C119.567 59.2711 119.394 59.7423 119.394 60.339C119.394 60.9356 119.567 61.4069 119.913 61.7528C120.259 62.0987 120.696 62.2716 121.223 62.2716C121.915 62.2716 122.438 61.9517 122.793 61.3118L124.362 62.1679C124.111 62.7213 123.709 63.1536 123.156 63.4649C122.611 63.7762 121.971 63.9319 121.236 63.9319ZM130.129 63.4909C129.93 63.6379 129.684 63.7503 129.39 63.8281C129.105 63.8973 128.802 63.9319 128.482 63.9319C127.652 63.9319 127.008 63.72 126.549 63.2963C126.1 62.8726 125.875 62.25 125.875 61.4285V58.562H124.798V57.0055H125.875V55.3063H127.898V57.0055H129.636V58.562H127.898V61.4026C127.898 61.6966 127.972 61.9257 128.119 62.09C128.275 62.2457 128.491 62.3235 128.767 62.3235C129.087 62.3235 129.36 62.237 129.585 62.0641L130.129 63.4909Z" fill="#475CA7"/>
<path d="M7.37815 15.093C5.30509 18.5663 4.26855 23.4121 4.26855 29.6304C4.26855 34.8963 5.30509 39.266 7.37815 42.7393C9.4041 46.2125 12.2781 48.8175 16.0002 50.5542C19.7223 52.3468 24.104 53.2432 29.1453 53.2432H30.469C30.6489 53.2432 30.7947 53.0973 30.7947 52.9174V46.1742C30.7947 45.9943 30.6489 45.8484 30.469 45.8484H27.0958C22.4314 45.8484 18.7564 44.5039 16.0709 41.8149C13.3382 39.1819 11.9719 35.1484 11.9719 29.7144C11.9719 25.1207 12.5844 21.6194 13.8094 19.2105C15.0344 16.8016 16.7776 15.149 19.0391 14.2527C21.3007 13.4124 23.9862 12.9922 27.0958 12.9922L32.6359 12.9922C32.8158 12.9922 32.9616 13.1381 32.9616 13.318L32.9616 19.8253C32.9616 20.0052 33.1075 20.1511 33.2874 20.1511H39.7738C39.9537 20.1511 40.0996 20.0052 40.0996 19.8253V6.25933C40.0996 6.07943 39.9537 5.93359 39.7738 5.93359H29.1453C24.104 5.93359 19.7223 6.60584 16.0002 7.95034C12.2781 9.29484 9.4041 11.6757 7.37815 15.093Z" fill="#475CA7"/>
<path d="M68.8994 45.9663C68.8994 39.748 67.8629 34.9022 65.7898 31.4289C63.7639 28.0117 60.8898 25.6308 57.1678 24.2863C53.4457 22.9418 49.064 22.2695 44.0226 22.2695L34.1542 22.2695C33.5545 22.2695 33.0684 22.7557 33.0684 23.3553V68.4933C33.0684 69.093 33.5545 69.5791 34.1542 69.5791H44.0227C49.064 69.5791 53.4457 68.6828 57.1678 66.8901C60.8899 65.1535 63.7639 62.5485 65.7898 59.0752C67.8629 55.6019 68.8994 51.2323 68.8994 45.9663ZM40.2063 30.4139C40.2063 29.8143 40.6925 29.3282 41.2921 29.3282L46.0722 29.3282C49.1818 29.3282 51.8673 29.7483 54.1288 30.5886C56.3904 31.485 58.1336 33.1376 59.3586 35.5465C60.5836 37.9554 61.1961 41.4567 61.1961 46.0504C61.1961 51.4844 59.8298 55.5179 57.0971 58.1509C54.4115 60.8399 50.7366 62.1844 46.0722 62.1844H41.2921C40.6925 62.1844 40.2063 61.6982 40.2063 61.0986L40.2063 30.4139Z" fill="#475CA7"/>
</svg>
